<?xml version="1.0" encoding="utf-8"?>
<!DOCTYPE svg PUBLIC "-//W3C//DTD SVG 1.1//EN" "http://www.w3.org/Graphics/SVG/1.1/DTD/svg11.dtd">
<!-- Generated by geo2svg 4.0.0. https://d3js.org/d3-geo-projection/ -->
<svg version="1.1" xmlns="http://www.w3.org/2000/svg" xmlns:xlink="http://www.w3.org/1999/xlink" width="960" height="960" viewBox="0 0 960 960" fill="none" stroke="black">
  <path d="M-102.05,39.568L-102.049,39.374L-102.047,39.133L-101.478,39.135L-101.392,39.135L-101.389,39.568L-101.414,39.568ZM-95.965,37.364L-95.964,37.299L-95.964,36.999L-95.928,36.999L-95.787,36.999L-95.574,36.999L-95.522,36.999L-95.521,37.384L-95.526,37.384L-95.962,37.387ZM-100.812,39.133L-100.819,38.7L-100.688,38.7L-100.247,38.698L-100.154,38.697L-100.148,39.132L-100.164,39.132L-100.721,39.133ZM-101.542,38.263L-101.543,37.828L-101.527,37.736L-101.09,37.736L-101.104,37.829L-101.103,38.265L-101.125,38.265ZM-97.929,38.958L-97.929,38.871L-97.925,38.61L-97.372,38.609L-97.381,38.929L-97.372,38.958ZM-95.508,38.39L-95.519,38.038L-95.078,38.038L-95.066,38.39ZM-96.036,39.144L-96.039,39.127L-95.994,39.134L-95.947,39.099L-95.947,38.87L-95.501,38.87L-95.5,39.057L-95.597,39.065L-95.589,39.216L-96.036,39.217ZM-95.187,39.044L-95.186,38.965L-95.056,38.982L-94.923,39.003L-94.909,38.991L-94.9,39.203L-94.792,39.201L-94.8,39.206L-94.826,39.242L-94.857,39.274L-94.908,39.324L-94.889,39.392L-94.947,39.4L-94.966,39.422L-94.998,39.419L-95.181,39.419L-95.18,39.129ZM-102.046,38.698L-102.046,38.615L-102.045,38.384L-102.045,38.269L-102.045,38.262L-101.567,38.263L-101.567,38.7ZM-96.93,38.609L-96.93,38.522L-96.82,38.522L-96.354,38.522L-96.353,38.739L-96.39,38.739L-96.39,38.826L-96.501,38.826L-96.502,38.87L-96.89,38.87L-96.927,38.812ZM-96.502,38.87L-96.501,38.826L-96.39,38.826L-96.39,38.739L-96.353,38.739L-95.946,38.739L-95.947,38.87L-95.947,39.099L-95.994,39.134L-96.039,39.127L-96.084,39.194L-96.234,39.212L-96.331,39.159L-96.389,39.173L-96.391,39.043L-96.501,39.044ZM-96.963,39.132L-96.963,38.965L-96.926,38.979L-96.927,38.87L-96.89,38.87L-96.502,38.87L-96.501,39.044L-96.851,39.088L-96.85,39.219L-96.962,39.22L-96.961,39.151ZM-95.788,40L-95.789,39.653L-95.564,39.653L-95.34,39.653L-95.34,40L-95.785,40ZM-98.473,38.173L-98.472,37.824L-98.465,37.81L-98.465,37.733L-97.808,37.734L-97.699,37.735L-97.702,37.911L-97.702,38.174L-97.922,38.174L-98.216,38.159L-98.216,38.173ZM-99.57,37.913L-99.571,37.826L-99.56,37.735L-99.014,37.733L-99.013,37.825L-99.023,37.84L-99.022,38L-99.241,38L-99.35,38.001L-99.35,38.088L-99.57,38.087ZM-100.227,37.914L-100.215,37.827L-100.216,37.475L-100.107,37.475L-99.556,37.468L-99.56,37.735L-99.571,37.826L-99.57,37.913ZM-100.247,38.698L-100.244,38.262L-100.227,38.262L-99.584,38.262L-99.585,38.349L-99.585,38.697L-99.598,38.697L-100.154,38.697ZM-96.523,38.086L-96.525,37.607L-95.961,37.604L-95.961,37.734L-95.959,38.04L-95.959,38.171L-96.357,38.173L-96.358,38.086ZM-97.153,37.476L-97.148,36.999L-97.101,36.999L-96.75,36.999L-96.526,36.999L-96.525,37.303L-96.526,37.476ZM-101.478,39.135L-101.484,38.7L-101.128,38.701L-100.819,38.7L-100.812,39.133L-101.392,39.135ZM-98.35,37.384L-98.347,36.998L-98.112,36.998L-98.045,36.998L-97.802,36.999L-97.804,37.366L-97.807,37.386ZM-97.808,37.734L-97.808,37.474L-97.153,37.476L-97.152,37.913L-97.702,37.911L-97.699,37.735ZM-95.521,37.384L-95.522,36.999L-95.408,36.999L-95.323,36.999L-95.074,36.999L-95.075,37.34L-95.088,37.384ZM-98.49,39.22L-98.49,39.133L-98.484,39.114L-98.485,38.871L-97.929,38.871L-97.929,38.958L-97.93,39.219ZM-99.044,39.568L-99.048,39.133L-99.037,39.133L-98.49,39.133L-98.49,39.22L-98.487,39.567L-98.505,39.568ZM-99.067,40.002L-99.066,39.568L-99.044,39.568L-98.505,39.568L-98.504,40.002L-98.614,40.002L-98.726,40.002ZM-98.465,37.471L-98.465,37.384L-98.35,37.384L-97.807,37.386L-97.808,37.474L-97.808,37.734L-98.465,37.733ZM-97.37,39.306L-97.371,39.132L-96.963,39.132L-96.961,39.151L-96.962,39.22L-96.959,39.566L-97.369,39.567ZM-100.162,39.567L-100.164,39.132L-100.148,39.132L-99.605,39.132L-99.602,39.567L-99.628,39.567ZM-100.688,38.7L-100.685,38.264L-100.244,38.262L-100.247,38.698ZM-101.128,38.701L-101.125,38.265L-101.103,38.265L-100.685,38.264L-100.688,38.7L-100.819,38.7ZM-100.72,39.568L-100.721,39.133L-100.164,39.132L-100.162,39.567L-100.18,39.567ZM-99.033,38.697L-99.032,38.348L-99.032,38.261L-98.913,38.261L-98.48,38.261L-98.48,38.522L-98.48,38.676L-98.486,38.697ZM-95.508,38.434L-95.508,38.39L-95.066,38.39L-95.066,38.695L-95.056,38.739L-95.501,38.739L-95.508,38.695ZM-101.068,37.388L-101.066,36.998L-100.945,36.998L-100.856,36.999L-100.633,37L-100.634,37.381L-100.653,37.388ZM-98.487,39.567L-98.49,39.22L-97.93,39.219L-97.932,39.277L-97.929,39.306L-97.929,39.551L-97.932,39.567ZM-97.381,38.929L-97.372,38.609L-96.93,38.609L-96.927,38.812L-96.89,38.87L-96.927,38.87L-96.926,38.979L-96.963,38.965L-96.963,39.132L-97.371,39.132L-97.372,38.958ZM-100.227,38.262L-100.227,38.001L-100.227,37.914L-99.57,37.913L-99.57,38.087L-99.57,38.189L-99.57,38.253L-99.584,38.262ZM-100.178,40.002L-100.18,39.567L-100.162,39.567L-99.628,39.567L-99.625,40.002L-99.628,40.002L-99.813,40.001ZM-96.525,37.607L-96.526,37.476L-96.525,37.303L-95.964,37.299L-95.965,37.364L-95.962,37.387L-95.961,37.604ZM-96.838,38.349L-96.841,38.086L-96.523,38.086L-96.358,38.086L-96.357,38.173L-96.354,38.522L-96.82,38.522ZM-95.066,38.695L-95.066,38.39L-94.613,38.389L-94.613,38.478L-94.613,38.478L-94.612,38.548L-94.609,38.738L-94.909,38.738L-95.056,38.739ZM-101.09,37.736L-101.09,37.388L-101.068,37.388L-100.653,37.388L-100.653,37.475L-100.652,37.736ZM-97.152,37.913L-97.153,37.476L-96.526,37.476L-96.525,37.607L-96.523,38.086L-96.841,38.086L-97.153,38.088ZM-98.48,38.522L-98.48,38.261L-98.472,38.239L-98.473,38.173L-98.216,38.173L-98.216,38.159L-97.922,38.174L-97.924,38.523ZM-97.931,39.654L-97.932,39.567L-97.929,39.551L-97.929,39.306L-97.37,39.306L-97.369,39.567L-97.369,39.654ZM-99.543,37.381L-99.541,37L-99.456,37L-99.407,37L-99.129,36.999L-99,36.999L-99.001,37.375L-99.011,37.384ZM-98.504,40.002L-98.505,39.568L-98.487,39.567L-97.932,39.567L-97.931,39.654L-97.932,40.002L-98.076,40.002L-98.274,40.002ZM-97.932,39.277L-97.93,39.219L-97.929,38.958L-97.372,38.958L-97.371,39.132L-97.37,39.306L-97.929,39.306ZM-97.369,40.002L-97.369,39.654L-97.369,39.567L-96.959,39.566L-96.807,39.566L-96.806,39.828L-96.806,40.001L-96.874,40.001L-96.916,40.001L-97.009,40.001ZM-96.525,37.303L-96.526,36.999L-96.5,36.999L-96.218,36.999L-96.001,36.999L-95.964,36.999L-95.964,37.299ZM-101.389,39.568L-101.392,39.135L-100.812,39.133L-100.721,39.133L-100.72,39.568L-100.741,39.568ZM-96.806,39.828L-96.807,39.566L-96.58,39.566L-96.239,39.566L-96.24,39.914L-96.239,40.001L-96.464,40.001L-96.47,40.001L-96.806,40.001ZM-95.95,38.695L-95.95,38.434L-95.508,38.434L-95.508,38.695L-95.501,38.739L-95.501,38.87L-95.947,38.87L-95.946,38.739ZM-98.485,38.871L-98.486,38.697L-98.48,38.676L-98.48,38.522L-97.924,38.523L-97.925,38.61L-97.929,38.871ZM-100.107,37.475L-100.092,37.387L-100.089,37.001L-100.003,37.002L-99.995,37.002L-99.658,37L-99.541,37L-99.543,37.381L-99.555,37.392L-99.556,37.468ZM-95.075,37.34L-95.074,36.999L-95.008,37L-94.995,37L-94.713,36.999L-94.618,36.999L-94.618,37.057L-94.618,37.16L-94.618,37.338ZM-101.411,40.003L-101.414,39.568L-101.389,39.568L-100.741,39.568L-100.739,40.002L-100.759,40.002L-101.06,40.002L-101.294,40.003L-101.324,40.003ZM-99.592,39.132L-99.598,38.697L-99.585,38.697L-99.043,38.697L-99.037,39.133L-99.048,39.133ZM-95.589,39.216L-95.597,39.065L-95.5,39.057L-95.419,39.067L-95.285,39.032L-95.187,39.044L-95.18,39.129L-95.181,39.419L-95.57,39.419L-95.589,39.405ZM-97.702,38.174L-97.702,37.911L-97.152,37.913L-97.153,38.088L-97.153,38.175L-97.372,38.174ZM-95.564,39.653L-95.57,39.419L-95.181,39.419L-94.998,39.419L-94.966,39.422L-94.982,39.441L-95.05,39.494L-95.091,39.533L-95.114,39.554L-95.077,39.577L-95.047,39.595L-95.044,39.614L-95.115,39.653L-95.34,39.653ZM-100.739,40.002L-100.741,39.568L-100.72,39.568L-100.18,39.567L-100.178,40.002L-100.194,40.002L-100.477,40.002ZM-95.088,37.732L-95.088,37.675L-94.618,37.673L-94.618,37.682L-94.614,37.988L-94.614,38.037L-95.078,38.038L-95.08,37.82ZM-101.557,37.388L-101.555,36.995L-101.485,36.996L-101.211,36.997L-101.066,36.998L-101.068,37.388L-101.09,37.388L-101.526,37.388ZM-99.585,38.349L-99.584,38.262L-99.57,38.253L-99.57,38.189L-99.57,38.087L-99.35,38.088L-99.35,38.001L-99.241,38L-99.022,38L-98.913,38L-98.913,38.261L-99.032,38.261L-99.032,38.348ZM-102.052,40.003L-102.051,39.819L-102.05,39.574L-102.05,39.568L-101.414,39.568L-101.411,40.003L-101.542,40.003L-101.832,40.003ZM-101.527,37.736L-101.526,37.388L-101.09,37.388L-101.09,37.736ZM-101.103,38.265L-101.104,37.829L-101.09,37.736L-100.652,37.736L-100.664,38.003L-100.227,38.001L-100.227,38.262L-100.244,38.262L-100.685,38.264ZM-95.959,38.171L-95.959,38.04L-95.519,38.038L-95.508,38.39L-95.508,38.434L-95.95,38.434L-95.95,38.26L-95.959,38.246ZM-102.042,37.739L-102.042,37.724L-102.042,37.644L-102.042,37.389L-101.557,37.388L-101.526,37.388L-101.527,37.736ZM-97.932,40.002L-97.931,39.654L-97.369,39.654L-97.369,40.002L-97.416,40.002L-97.777,40.002L-97.822,40.002ZM-99.013,37.47L-99.011,37.384L-99.001,37.375L-99,36.999L-98.792,36.999L-98.545,36.999L-98.354,36.998L-98.347,36.998L-98.35,37.384L-98.465,37.384L-98.465,37.471ZM-102.045,38.262L-102.044,38.113L-102.042,37.739L-101.527,37.736L-101.543,37.828L-101.542,38.263L-101.567,38.263ZM-100.664,38.003L-100.652,37.736L-100.653,37.475L-100.216,37.475L-100.215,37.827L-100.227,37.914L-100.227,38.001ZM-95.526,37.733L-95.526,37.384L-95.521,37.384L-95.088,37.384L-95.088,37.675L-95.088,37.732ZM-95.961,37.604L-95.962,37.387L-95.526,37.384L-95.526,37.733L-95.961,37.734ZM-101.567,38.7L-101.567,38.263L-101.542,38.263L-101.125,38.265L-101.128,38.701L-101.484,38.7ZM-99.585,38.697L-99.585,38.349L-99.032,38.348L-99.033,38.697L-99.043,38.697ZM-100.653,37.475L-100.653,37.388L-100.634,37.381L-100.633,37L-100.553,37.001L-100.089,37.001L-100.092,37.387L-100.107,37.475L-100.216,37.475ZM-97.925,38.61L-97.924,38.523L-97.922,38.174L-97.702,38.174L-97.372,38.174L-97.372,38.609ZM-96.036,39.566L-96.036,39.217L-95.589,39.216L-95.589,39.405L-95.57,39.419L-95.564,39.653L-95.789,39.653L-95.789,39.566ZM-100.148,39.132L-100.154,38.697L-99.598,38.697L-99.592,39.132L-99.605,39.132ZM-99.56,37.735L-99.556,37.468L-99.555,37.392L-99.543,37.381L-99.011,37.384L-99.013,37.47L-99.014,37.733ZM-97.808,37.474L-97.807,37.386L-97.804,37.366L-97.802,36.999L-97.769,36.999L-97.462,36.999L-97.385,36.999L-97.148,36.999L-97.153,37.476ZM-95.34,40L-95.34,39.653L-95.115,39.653L-95.044,39.614L-95.037,39.653L-94.971,39.686L-94.971,39.723L-94.899,39.724L-94.86,39.75L-94.871,39.773L-94.878,39.821L-94.879,39.827L-94.928,39.876L-94.952,39.901L-94.993,39.899L-95.019,39.897L-95.082,39.862L-95.142,39.895L-95.231,39.944L-95.308,40ZM-102.042,37.035L-102.042,36.993L-102.028,36.993L-101.902,36.994L-101.555,36.995L-101.557,37.388L-102.042,37.389L-102.042,37.258L-102.042,37.107ZM-95.088,37.675L-95.088,37.384L-95.075,37.34L-94.618,37.338L-94.618,37.364L-94.618,37.411L-94.618,37.654L-94.618,37.673ZM-96.354,38.522L-96.357,38.173L-95.959,38.171L-95.959,38.246L-95.95,38.26L-95.95,38.434L-95.95,38.695L-95.946,38.739L-96.353,38.739ZM-95.056,38.982L-95.056,38.739L-94.909,38.738L-94.609,38.738L-94.609,38.741L-94.609,38.847L-94.608,38.982L-94.608,39.044L-94.875,39.058L-94.909,38.991L-94.923,39.003ZM-99.037,39.133L-99.043,38.697L-99.033,38.697L-98.486,38.697L-98.485,38.871L-98.484,39.114L-98.49,39.133ZM-102.047,39.133L-102.047,39.047L-102.046,38.698L-101.567,38.7L-101.484,38.7L-101.478,39.135ZM-99.013,37.825L-99.014,37.733L-99.013,37.47L-98.465,37.471L-98.465,37.733L-98.465,37.81L-98.472,37.824ZM-95.066,38.39L-95.078,38.038L-94.614,38.037L-94.614,38.06L-94.613,38.238L-94.613,38.389ZM-96.239,40.001L-96.24,39.914L-96.239,39.566L-96.036,39.566L-95.789,39.566L-95.789,39.653L-95.788,40L-96.011,40.001L-96.024,40.001L-96.154,40L-96.239,40.001ZM-95.501,38.87L-95.501,38.739L-95.056,38.739L-95.056,38.982L-95.186,38.965L-95.187,39.044L-95.285,39.032L-95.419,39.067L-95.5,39.057ZM-94.9,39.203L-94.909,38.991L-94.875,39.058L-94.608,39.044L-94.607,39.113L-94.592,39.155L-94.602,39.156L-94.624,39.157L-94.68,39.184L-94.742,39.17L-94.792,39.201ZM-97.372,38.609L-97.372,38.174L-97.153,38.175L-97.153,38.088L-96.841,38.086L-96.838,38.349L-96.82,38.522L-96.93,38.522L-96.93,38.609ZM-99.625,40.002L-99.628,39.567L-99.602,39.567L-99.066,39.568L-99.067,40.002L-99.086,40.002L-99.179,40.002L-99.502,40.002ZM-99.602,39.567L-99.605,39.132L-99.592,39.132L-99.048,39.133L-99.044,39.568L-99.066,39.568ZM-96.959,39.566L-96.962,39.22L-96.85,39.219L-96.851,39.088L-96.501,39.044L-96.391,39.043L-96.389,39.173L-96.462,39.167L-96.55,39.213L-96.639,39.293L-96.727,39.404L-96.707,39.462L-96.58,39.566L-96.807,39.566ZM-96.707,39.462L-96.727,39.404L-96.639,39.293L-96.55,39.213L-96.462,39.167L-96.389,39.173L-96.331,39.159L-96.234,39.212L-96.084,39.194L-96.039,39.127L-96.036,39.144L-96.036,39.217L-96.036,39.566L-96.239,39.566L-96.58,39.566ZM-95.519,37.82L-95.526,37.733L-95.088,37.732L-95.08,37.82L-95.078,38.038L-95.519,38.038ZM-99.022,38L-99.023,37.84L-99.013,37.825L-98.472,37.824L-98.473,38.173L-98.472,38.239L-98.48,38.261L-98.913,38.261L-98.913,38ZM-95.959,38.04L-95.961,37.734L-95.526,37.733L-95.519,37.82L-95.519,38.038Z"></path>
</svg>
